<svg width="18" height="18" viewBox="0 0 18 18" fill="none" xmlns="http://www.w3.org/2000/svg">
<path fill-rule="evenodd" clip-rule="evenodd" d="M9 0.772491C4.28303 0.772491 0.462502 4.59302 0.462502 9.30999C0.462502 13.0878 2.90636 16.2787 6.30002 17.4099C6.72689 17.4846 6.88697 17.2285 6.88697 17.0044C6.88697 16.8016 6.8763 16.1293 6.8763 15.4143C4.73125 15.8092 4.17631 14.8914 4.00556 14.4111C3.90952 14.1657 3.49331 13.408 3.13047 13.2052C2.83166 13.0451 2.40478 12.6503 3.1198 12.6396C3.79213 12.6289 4.27236 13.2586 4.43244 13.5147C5.20081 14.806 6.42808 14.4432 6.91899 14.2191C6.99369 13.6641 7.2178 13.2906 7.46325 13.0772C5.56366 12.8637 3.57869 12.1274 3.57869 8.86177C3.57869 7.93332 3.90952 7.16494 4.45378 6.56732C4.36841 6.35388 4.0696 5.47879 4.53916 4.30488C4.53916 4.30488 5.25417 4.08077 6.88697 5.17998C7.56997 4.98788 8.29566 4.89184 9.02135 4.89184C9.74703 4.89184 10.4727 4.98788 11.1557 5.17998C12.7885 4.0701 13.5035 4.30488 13.5035 4.30488C13.9731 5.47879 13.6743 6.35388 13.5889 6.56732C14.1332 7.16494 14.464 7.92265 14.464 8.86177C14.464 12.138 12.4684 12.8637 10.5688 13.0772C10.8783 13.344 11.145 13.8562 11.145 14.6566C11.145 15.7985 11.1344 16.7163 11.1344 17.0044C11.1344 17.2285 11.2945 17.4953 11.7213 17.4099C13.4162 16.8377 14.8889 15.7485 15.9322 14.2954C16.9756 12.8424 17.537 11.0988 17.5375 9.30999C17.5375 4.59302 13.717 0.772491 9 0.772491Z" fill="black"/>
</svg>
