<svg width="18" height="18" viewBox="0 0 18 18" fill="none" xmlns="http://www.w3.org/2000/svg">
<path d="M17.7045 7.6378H17.0168V7.60237H9.33319V11.0173H14.1581C13.4542 13.0052 11.5627 14.4323 9.33319 14.4323C6.50434 14.4323 4.21078 12.1387 4.21078 9.30984C4.21078 6.48099 6.50434 4.18743 9.33319 4.18743C10.639 4.18743 11.827 4.68004 12.7315 5.48468L15.1463 3.06989C13.6215 1.64885 11.5819 0.772491 9.33319 0.772491C4.61844 0.772491 0.795837 4.59509 0.795837 9.30984C0.795837 14.0246 4.61844 17.8472 9.33319 17.8472C14.0479 17.8472 17.8705 14.0246 17.8705 9.30984C17.8705 8.73741 17.8116 8.17865 17.7045 7.6378Z" fill="#FFC107"/>
<path d="M1.77966 5.33613L4.58461 7.39321C5.34358 5.51414 7.18167 4.18743 9.33266 4.18743C10.6384 4.18743 11.8264 4.68004 12.731 5.48468L15.1457 3.06989C13.621 1.64885 11.5814 0.772491 9.33266 0.772491C6.05346 0.772491 3.20967 2.62382 1.77966 5.33613Z" fill="#FF3D00"/>
<path d="M9.3333 17.8475C11.5385 17.8475 13.5422 17.0036 15.0572 15.6312L12.4149 13.3953C11.5289 14.069 10.4463 14.4334 9.3333 14.4325C7.11274 14.4325 5.22726 13.0166 4.51696 11.0406L1.73293 13.1857C3.14586 15.9505 6.01526 17.8475 9.3333 17.8475Z" fill="#4CAF50"/>
<path d="M17.7045 7.63782H17.0168V7.60239H9.33321V11.0173H14.1581C13.8214 11.9634 13.2149 12.7902 12.4135 13.3954L12.4148 13.3946L15.0571 15.6305C14.8701 15.8004 17.8706 13.5785 17.8706 9.30986C17.8706 8.73743 17.8117 8.17866 17.7045 7.63782Z" fill="#1976D2"/>
</svg>
